<?xml version="1.0" standalone="no"?><!DOCTYPE svg PUBLIC "-//W3C//DTD SVG 1.1//EN" "http://www.w3.org/Graphics/SVG/1.1/DTD/svg11.dtd"><svg t="1638004632815" class="icon" viewBox="0 0 1024 1024" version="1.1" xmlns="http://www.w3.org/2000/svg" p-id="2295" width="48" height="48" xmlns:xlink="http://www.w3.org/1999/xlink"><defs><style type="text/css"></style></defs><path d="M768 128v85.333333h-85.333333V128H341.333333v85.333333h-85.333333V128H170.666667v768h85.333333v-85.333333h85.333333v85.333333h341.333334v-85.333333h85.333333v85.333333h85.333333V128h-85.333333zM341.333333 725.333333h-85.333333v-85.333333h85.333333v85.333333z m0-170.666666h-85.333333v-85.333334h85.333333v85.333334z m0-170.666667h-85.333333v-85.333333h85.333333v85.333333z m426.666667 341.333333h-85.333333v-85.333333h85.333333v85.333333z m0-170.666666h-85.333333v-85.333334h85.333333v85.333334z m0-170.666667h-85.333333v-85.333333h85.333333v85.333333z" p-id="2296" fill="#2c2c2c"></path></svg>