<?xml version="1.0" standalone="no"?><!DOCTYPE svg PUBLIC "-//W3C//DTD SVG 1.1//EN" "http://www.w3.org/Graphics/SVG/1.1/DTD/svg11.dtd"><svg t="1638016154961" class="icon" viewBox="0 0 1024 1024" version="1.1" xmlns="http://www.w3.org/2000/svg" p-id="2286" xmlns:xlink="http://www.w3.org/1999/xlink" width="32" height="32"><defs><style type="text/css"></style></defs><path d="M756.7 326.4H265.9c-15.2 0-27.5-12.3-27.5-27.5s12.3-27.5 27.5-27.5h490.8c15.2 0 27.5 12.3 27.5 27.5s-12.3 27.5-27.5 27.5zM756.7 538.7H265.9c-15.2 0-27.5-12.3-27.5-27.5s12.3-27.5 27.5-27.5h490.8c15.2 0 27.5 12.3 27.5 27.5s-12.3 27.5-27.5 27.5zM756.7 751.1H265.9c-15.2 0-27.5-12.3-27.5-27.5s12.3-27.5 27.5-27.5h490.8c15.2 0 27.5 12.3 27.5 27.5s-12.3 27.5-27.5 27.5z" fill="" p-id="2287"></path></svg>